<?xml version="1.0" encoding="UTF-8" standalone="no"?>
<!-- Created with Inkscape (http://www.inkscape.org/) -->

<svg
   xmlns:dc="http://purl.org/dc/elements/1.1/"
   xmlns:cc="http://creativecommons.org/ns#"
   xmlns:rdf="http://www.w3.org/1999/02/22-rdf-syntax-ns#"
   xmlns:svg="http://www.w3.org/2000/svg"
   xmlns="http://www.w3.org/2000/svg"
   xmlns:sodipodi="http://sodipodi.sourceforge.net/DTD/sodipodi-0.dtd"
   xmlns:inkscape="http://www.inkscape.org/namespaces/inkscape"
   width="300mm"
   height="210mm"
   viewBox="0 0 300 210"
   version="1.1"
   id="svg1271"
   inkscape:version="0.92.2 (5c3e80d, 2017-08-06)"
   sodipodi:docname="awan.svg">
  <defs
     id="defs1265" />
  <sodipodi:namedview
     id="base"
     pagecolor="#ffffff"
     bordercolor="#666666"
     borderopacity="1.0"
     inkscape:pageopacity="0.0"
     inkscape:pageshadow="2"
     inkscape:zoom="0.34175489"
     inkscape:cx="1249.705"
     inkscape:cy="331.0608"
     inkscape:document-units="mm"
     inkscape:current-layer="layer1"
     showgrid="false"
     inkscape:window-width="1366"
     inkscape:window-height="746"
     inkscape:window-x="-8"
     inkscape:window-y="-8"
     inkscape:window-maximized="1" />
  <metadata
     id="metadata1268">
    <rdf:RDF>
      <cc:Work
         rdf:about="">
        <dc:format>image/svg+xml</dc:format>
        <dc:type
           rdf:resource="http://purl.org/dc/dcmitype/StillImage" />
        <dc:title></dc:title>
      </cc:Work>
    </rdf:RDF>
  </metadata>
  <g
     inkscape:label="Layer 1"
     inkscape:groupmode="layer"
     id="layer1"
     transform="translate(0,-87)">
    <path
       style="fill:#808080;fill-opacity:1;stroke-width:0.63918847"
       d="m 250.98006,202.97144 c -1.02672,-1.00347 -1.95072,-1.32215 -3.13101,-1.07986 -4.02033,0.8253 -7.62336,-1.44455 -7.62336,-4.80258 0,-1.49026 0.47302,-2.242 2.03516,-3.23437 1.11934,-0.71107 2.65637,-1.29396 3.41564,-1.2953 0.75927,-0.002 2.10247,-0.75468 2.98489,-1.67407 1.10415,-1.15043 1.99163,-1.54358 2.84637,-1.26092 0.85239,0.28187 1.24198,0.11112 1.24198,-0.54434 0,-1.49879 4.13069,-4.89636 6.52091,-5.36356 4.12889,-0.80705 9.12517,1.96774 10.35624,5.75155 0.68116,2.09361 2.35291,3.20205 7.22046,4.78746 2.53792,0.82663 3.51093,3.61188 1.90692,5.45857 -0.63282,0.72856 -1.55936,1.32465 -2.05898,1.32465 -0.49962,0 -1.74563,0.734 -2.7689,1.63111 -2.19072,1.92063 -6.3167,2.21848 -8.51439,0.61465 -0.76606,-0.55906 -1.73692,-0.7949 -2.15747,-0.52409 -0.42056,0.27082 -2.04036,0.57681 -3.59957,0.68 -1.5592,0.1032 -3.82118,0.36021 -5.02662,0.57115 -1.71818,0.30067 -2.50641,0.0759 -3.64827,-1.04005 z"
       id="path4524"
       inkscape:connector-curvature="0" />
  </g>
</svg>
